<svg width="150" height="40" viewBox="0 0 150 40" fill="none" xmlns="http://www.w3.org/2000/svg">
<g clip-path="url(#clip0_339_743)">
<path d="M43.6799 14.18C42.8519 14.18 42.1019 14.084 41.4299 13.892C40.7699 13.688 40.1819 13.4 39.6659 13.028C39.1499 12.644 38.6879 12.194 38.2799 11.678L40.1339 9.572C40.7339 10.376 41.3339 10.916 41.9339 11.192C42.5459 11.468 43.1759 11.606 43.8239 11.606C44.1479 11.606 44.4419 11.564 44.7059 11.48C44.9699 11.396 45.1739 11.276 45.3179 11.12C45.4619 10.952 45.5339 10.748 45.5339 10.508C45.5339 10.328 45.4859 10.166 45.3899 10.022C45.3059 9.878 45.1859 9.752 45.0299 9.644C44.8739 9.536 44.6879 9.44 44.4719 9.356C44.2559 9.26 44.0279 9.182 43.7879 9.122C43.5479 9.05 43.3019 8.99 43.0499 8.942C42.3539 8.786 41.7479 8.594 41.2319 8.366C40.7159 8.138 40.2839 7.862 39.9359 7.538C39.5999 7.202 39.3479 6.824 39.1799 6.404C39.0119 5.972 38.9279 5.492 38.9279 4.964C38.9279 4.4 39.0539 3.884 39.3059 3.416C39.5699 2.936 39.9179 2.528 40.3499 2.192C40.7939 1.844 41.3039 1.58 41.8799 1.4C42.4559 1.208 43.0559 1.112 43.6799 1.112C44.5079 1.112 45.2159 1.202 45.8039 1.382C46.4039 1.55 46.9139 1.796 47.3339 2.12C47.7659 2.444 48.1319 2.834 48.4319 3.29L46.5419 5.108C46.2899 4.796 46.0139 4.538 45.7139 4.334C45.4259 4.13 45.1139 3.974 44.7779 3.866C44.4539 3.758 44.1179 3.704 43.7699 3.704C43.4099 3.704 43.0979 3.752 42.8339 3.848C42.5819 3.932 42.3839 4.058 42.2399 4.226C42.0959 4.382 42.0239 4.574 42.0239 4.802C42.0239 5.006 42.0839 5.18 42.2039 5.324C42.3239 5.468 42.4859 5.6 42.6899 5.72C42.8939 5.828 43.1279 5.924 43.3919 6.008C43.6559 6.08 43.9319 6.14 44.2199 6.188C44.8799 6.32 45.4739 6.494 46.0019 6.71C46.5419 6.926 47.0039 7.19 47.3879 7.502C47.7839 7.814 48.0839 8.186 48.2879 8.618C48.5039 9.038 48.6119 9.53 48.6119 10.094C48.6119 10.97 48.3959 11.714 47.9639 12.326C47.5439 12.926 46.9619 13.388 46.2179 13.712C45.4859 14.024 44.6399 14.18 43.6799 14.18ZM50.6601 14V11.426H52.7841V3.974H50.6601V1.4H57.9861V3.974H55.8441V11.426H57.9861V14H50.6601ZM60.8965 14V1.4H63.6325L70.2385 10.4L69.6445 10.31C69.5845 9.914 69.5365 9.536 69.5005 9.176C69.4645 8.816 69.4285 8.462 69.3925 8.114C69.3685 7.766 69.3445 7.412 69.3205 7.052C69.3085 6.692 69.2965 6.302 69.2845 5.882C69.2845 5.462 69.2845 5.006 69.2845 4.514V1.4H72.2545V14H69.4825L62.5885 4.712L63.5065 4.838C63.5665 5.414 63.6145 5.906 63.6505 6.314C63.6985 6.71 63.7345 7.064 63.7585 7.376C63.7945 7.688 63.8185 7.97 63.8305 8.222C63.8425 8.474 63.8485 8.726 63.8485 8.978C63.8605 9.218 63.8665 9.488 63.8665 9.788V14H60.8965ZM81.266 14.18C80.258 14.18 79.346 14.018 78.53 13.694C77.714 13.37 77.012 12.914 76.424 12.326C75.836 11.738 75.386 11.048 75.074 10.256C74.762 9.452 74.606 8.582 74.606 7.646C74.606 6.71 74.768 5.852 75.092 5.072C75.428 4.28 75.902 3.59 76.514 3.002C77.126 2.414 77.846 1.958 78.674 1.634C79.514 1.31 80.426 1.148 81.41 1.148C82.106 1.148 82.76 1.238 83.372 1.418C83.996 1.598 84.56 1.844 85.064 2.156C85.568 2.468 85.994 2.828 86.342 3.236L84.488 5.198C84.188 4.91 83.876 4.67 83.552 4.478C83.24 4.286 82.904 4.136 82.544 4.028C82.184 3.908 81.8 3.848 81.392 3.848C80.864 3.848 80.378 3.944 79.934 4.136C79.502 4.328 79.118 4.598 78.782 4.946C78.458 5.282 78.206 5.684 78.026 6.152C77.846 6.608 77.756 7.106 77.756 7.646C77.756 8.186 77.852 8.69 78.044 9.158C78.236 9.626 78.5 10.034 78.836 10.382C79.172 10.718 79.568 10.988 80.024 11.192C80.492 11.384 80.99 11.48 81.518 11.48C81.89 11.48 82.238 11.42 82.562 11.3C82.898 11.18 83.186 11.018 83.426 10.814C83.666 10.61 83.858 10.37 84.002 10.094C84.146 9.806 84.218 9.5 84.218 9.176V8.708L84.614 9.32H81.14V6.926H87.062C87.086 7.058 87.104 7.238 87.116 7.466C87.128 7.694 87.134 7.916 87.134 8.132C87.146 8.348 87.152 8.51 87.152 8.618C87.152 9.434 87.002 10.184 86.702 10.868C86.414 11.54 86.006 12.122 85.478 12.614C84.95 13.106 84.326 13.49 83.606 13.766C82.886 14.042 82.106 14.18 81.266 14.18ZM87.7183 14L92.7043 1.4H95.2963L100.246 14H97.1503L94.7743 7.61C94.6783 7.358 94.5823 7.088 94.4863 6.8C94.3903 6.512 94.2943 6.218 94.1983 5.918C94.1023 5.606 94.0063 5.306 93.9103 5.018C93.8263 4.718 93.7543 4.442 93.6943 4.19L94.2343 4.172C94.1623 4.472 94.0783 4.766 93.9823 5.054C93.8983 5.342 93.8083 5.63 93.7123 5.918C93.6283 6.194 93.5323 6.476 93.4243 6.764C93.3163 7.04 93.2143 7.328 93.1183 7.628L90.7423 14H87.7183ZM90.0943 11.588L91.0483 9.284H96.8443L97.7803 11.588H90.0943ZM101.818 14V1.4H107.254C108.046 1.4 108.748 1.58 109.36 1.94C109.984 2.3 110.476 2.792 110.836 3.416C111.208 4.04 111.394 4.742 111.394 5.522C111.394 6.338 111.208 7.07 110.836 7.718C110.476 8.354 109.984 8.858 109.36 9.23C108.748 9.602 108.046 9.788 107.254 9.788H104.878V14H101.818ZM104.824 7.106H106.822C107.086 7.106 107.326 7.04 107.542 6.908C107.758 6.776 107.932 6.596 108.064 6.368C108.196 6.14 108.262 5.876 108.262 5.576C108.262 5.264 108.196 5 108.064 4.784C107.932 4.568 107.758 4.4 107.542 4.28C107.326 4.16 107.086 4.1 106.822 4.1H104.824V7.106ZM119.478 14.18C118.518 14.18 117.642 14.018 116.85 13.694C116.058 13.37 115.368 12.914 114.78 12.326C114.192 11.738 113.736 11.048 113.412 10.256C113.088 9.464 112.926 8.594 112.926 7.646C112.926 6.698 113.088 5.828 113.412 5.036C113.736 4.244 114.192 3.554 114.78 2.966C115.368 2.378 116.058 1.922 116.85 1.598C117.642 1.274 118.512 1.112 119.46 1.112C120.408 1.112 121.278 1.274 122.07 1.598C122.862 1.922 123.552 2.378 124.14 2.966C124.728 3.554 125.178 4.244 125.49 5.036C125.814 5.828 125.976 6.698 125.976 7.646C125.976 8.582 125.814 9.452 125.49 10.256C125.178 11.048 124.728 11.738 124.14 12.326C123.552 12.914 122.862 13.37 122.07 13.694C121.278 14.018 120.414 14.18 119.478 14.18ZM119.46 11.3C119.952 11.3 120.402 11.21 120.81 11.03C121.23 10.85 121.59 10.598 121.89 10.274C122.202 9.938 122.442 9.548 122.61 9.104C122.778 8.66 122.862 8.174 122.862 7.646C122.862 7.118 122.778 6.632 122.61 6.188C122.442 5.744 122.202 5.36 121.89 5.036C121.59 4.7 121.23 4.442 120.81 4.262C120.402 4.082 119.952 3.992 119.46 3.992C118.968 3.992 118.512 4.082 118.092 4.262C117.684 4.442 117.324 4.7 117.012 5.036C116.7 5.36 116.46 5.744 116.292 6.188C116.136 6.632 116.058 7.118 116.058 7.646C116.058 8.174 116.136 8.666 116.292 9.122C116.46 9.566 116.7 9.95 117.012 10.274C117.324 10.598 117.684 10.85 118.092 11.03C118.512 11.21 118.968 11.3 119.46 11.3ZM128.344 14V1.4H134.014C134.818 1.4 135.544 1.574 136.192 1.922C136.852 2.27 137.368 2.75 137.74 3.362C138.112 3.962 138.298 4.646 138.298 5.414C138.298 6.206 138.112 6.92 137.74 7.556C137.368 8.18 136.858 8.672 136.21 9.032C135.562 9.392 134.83 9.572 134.014 9.572H131.26V14H128.344ZM135.328 14L132.124 8.312L135.256 7.862L138.82 14H135.328ZM131.26 7.232H133.744C134.056 7.232 134.326 7.166 134.554 7.034C134.794 6.89 134.974 6.692 135.094 6.44C135.226 6.188 135.292 5.9 135.292 5.576C135.292 5.252 135.22 4.97 135.076 4.73C134.932 4.478 134.722 4.286 134.446 4.154C134.182 4.022 133.858 3.956 133.474 3.956H131.26V7.232ZM140.982 14V1.4H149.766V4.01H143.952V11.39H149.946V14H140.982ZM142.422 8.834V6.35H148.956V8.834H142.422Z" fill="#B91313"/>
<path d="M43.0461 39V25.292H38.5381V22.9H50.1761V25.292H45.5301V39H43.0461ZM55.171 39V36.7H57.77V25.2H55.171V22.9H62.853V25.2H60.254V36.7H62.853V39H55.171ZM75.4775 39.23C74.3582 39.23 73.3309 39.0307 72.3955 38.632C71.4602 38.2333 70.6475 37.666 69.9575 36.93C69.2675 36.1787 68.7309 35.297 68.3475 34.285C67.9795 33.273 67.7955 32.1613 67.7955 30.95C67.7955 29.8 67.9949 28.7343 68.3935 27.753C68.8075 26.7563 69.3749 25.8823 70.0955 25.131C70.8162 24.3797 71.6519 23.797 72.6025 23.383C73.5532 22.969 74.5805 22.762 75.6845 22.762C76.4665 22.762 77.2255 22.8847 77.9615 23.13C78.7129 23.36 79.3875 23.6897 79.9855 24.119C80.5989 24.533 81.0972 25.0083 81.4805 25.545L79.8245 27.27C79.3799 26.8253 78.9275 26.4573 78.4675 26.166C78.0229 25.8593 77.5629 25.6293 77.0875 25.476C76.6275 25.3227 76.1599 25.246 75.6845 25.246C74.9332 25.246 74.2279 25.3917 73.5685 25.683C72.9245 25.959 72.3572 26.35 71.8665 26.856C71.3912 27.362 71.0155 27.9677 70.7395 28.673C70.4635 29.363 70.3255 30.122 70.3255 30.95C70.3255 31.824 70.4559 32.6213 70.7165 33.342C70.9925 34.0473 71.3759 34.653 71.8665 35.159C72.3572 35.665 72.9399 36.056 73.6145 36.332C74.3045 36.5927 75.0635 36.723 75.8915 36.723C76.3975 36.723 76.8959 36.654 77.3865 36.516C77.8772 36.378 78.3372 36.1787 78.7665 35.918C79.1959 35.6573 79.5869 35.3507 79.9395 34.998L81.1815 37.022C80.8289 37.436 80.3459 37.8117 79.7325 38.149C79.1345 38.4863 78.4599 38.7547 77.7085 38.954C76.9725 39.138 76.2289 39.23 75.4775 39.23ZM89.1559 34.124L89.0179 31.341L97.4589 22.9H100.725L89.1559 34.124ZM87.0859 39V22.9H89.5699V39H87.0859ZM97.7579 39L91.5939 30.766L93.4339 29.179L100.863 39H97.7579ZM106.462 39V22.9H116.605V25.292H108.946V36.608H116.605V39H106.462ZM107.589 31.939V29.547H115.34V31.939H107.589ZM126.179 39V25.292H121.671V22.9H133.309V25.292H128.663V39H126.179ZM143.869 39.23C142.995 39.23 142.183 39.115 141.431 38.885C140.695 38.655 140.021 38.31 139.407 37.85C138.809 37.3747 138.273 36.792 137.797 36.102L139.499 34.147C140.251 35.2203 140.971 35.964 141.661 36.378C142.351 36.792 143.172 36.999 144.122 36.999C144.705 36.999 145.234 36.907 145.709 36.723C146.185 36.539 146.56 36.286 146.836 35.964C147.112 35.642 147.25 35.274 147.25 34.86C147.25 34.584 147.204 34.3233 147.112 34.078C147.02 33.8327 146.875 33.6103 146.675 33.411C146.491 33.2117 146.246 33.0277 145.939 32.859C145.648 32.6903 145.303 32.5447 144.904 32.422C144.506 32.284 144.046 32.169 143.524 32.077C142.696 31.9083 141.976 31.686 141.362 31.41C140.749 31.134 140.235 30.789 139.821 30.375C139.407 29.961 139.101 29.4933 138.901 28.972C138.702 28.4353 138.602 27.8373 138.602 27.178C138.602 26.534 138.74 25.936 139.016 25.384C139.308 24.832 139.699 24.3567 140.189 23.958C140.695 23.544 141.286 23.2297 141.96 23.015C142.635 22.785 143.363 22.67 144.145 22.67C144.973 22.67 145.732 22.7773 146.422 22.992C147.112 23.2067 147.726 23.5287 148.262 23.958C148.799 24.372 149.244 24.8857 149.596 25.499L147.848 27.224C147.542 26.718 147.197 26.2963 146.813 25.959C146.43 25.6063 146.008 25.3457 145.548 25.177C145.088 24.993 144.598 24.901 144.076 24.901C143.478 24.901 142.957 24.993 142.512 25.177C142.068 25.361 141.715 25.6217 141.454 25.959C141.209 26.281 141.086 26.6643 141.086 27.109C141.086 27.431 141.148 27.73 141.27 28.006C141.393 28.2667 141.577 28.5043 141.822 28.719C142.083 28.9183 142.428 29.1023 142.857 29.271C143.287 29.4243 143.8 29.5623 144.398 29.685C145.242 29.869 145.993 30.1067 146.652 30.398C147.312 30.674 147.871 31.0037 148.331 31.387C148.791 31.7703 149.136 32.1997 149.366 32.675C149.612 33.1503 149.734 33.664 149.734 34.216C149.734 35.2433 149.497 36.1327 149.021 36.884C148.546 37.6353 147.871 38.218 146.997 38.632C146.123 39.0307 145.081 39.23 143.869 39.23Z" fill="black"/>
<path fill-rule="evenodd" clip-rule="evenodd" d="M4 0C1.79086 0 0 1.79086 0 4V7.62047C2.73665 8.72835 5.00783 9.9497 6.69323 11.7164C8.13119 13.2234 9.13003 15.1115 9.61236 17.639C9.28578 14.9909 8.58841 13.0334 7.57852 11.4862C6.07022 9.17689 3.84846 7.76537 1.11523 6.32771C0.992641 6.26336 0.945412 6.11155 1.01073 5.9889C1.07504 5.86625 1.22678 5.81899 1.34937 5.88434C4.14992 7.3582 6.42996 8.80993 7.99855 11.2117C9.124 12.9359 9.87463 15.1387 10.1761 18.1778C10.0193 15.3618 9.63949 13.3149 9.06069 11.7154C8.24776 9.47045 7.03388 8.10116 5.48539 6.70673C5.38289 6.61423 5.37385 6.45539 5.4663 6.35183C5.55874 6.24929 5.71751 6.24024 5.82101 6.33273C7.42377 7.77542 8.68286 9.198 9.53197 11.5435C10.0575 12.9952 10.4223 14.7978 10.6102 17.1775C10.5047 14.7818 10.2997 12.9731 10.0033 11.5234C9.53599 9.23218 8.84063 7.83675 7.95735 6.41919C7.884 6.30157 7.92017 6.14674 8.03774 6.07335C8.15531 5.99996 8.31006 6.03615 8.38342 6.15378C9.29483 7.61557 10.0113 9.05423 10.4936 11.4229C10.6675 12.2774 10.8112 13.2526 10.9217 14.3947C10.8654 12.9862 10.7891 11.8099 10.6946 10.7965C10.4665 8.33741 10.1309 6.83943 9.71988 5.31632C9.68371 5.1826 9.7641 5.04487 9.89775 5.00868C10.0314 4.97248 10.1691 5.05291 10.2052 5.18663C10.6223 6.72985 10.9619 8.24894 11.194 10.7513C11.3447 12.3699 11.4493 14.3997 11.5005 17.1172C11.5518 14.4007 11.6573 12.3699 11.807 10.7513C12.0391 8.24794 12.3788 6.72985 12.7958 5.18663C12.8319 5.05291 12.9686 4.97349 13.1033 5.00868C13.2369 5.04487 13.3163 5.1816 13.2811 5.31632C12.8691 6.84044 12.5345 8.33842 12.3054 10.7965C12.2351 11.5556 12.1748 12.4061 12.1245 13.3773C12.22 12.6564 12.3325 12.009 12.4581 11.4188C12.9646 9.05222 13.7062 7.61557 14.6166 6.15478C14.6899 6.03716 14.8447 6.00096 14.9623 6.07436C15.0798 6.14775 15.116 6.30257 15.0426 6.4202C14.1584 7.83775 13.4399 9.23218 12.9485 11.5234C12.5757 13.2637 12.3325 15.5187 12.2471 18.6866C12.3918 15.5398 12.8008 13.2898 13.4419 11.5465C14.3041 9.20001 15.5762 7.77642 17.179 6.33374C17.2815 6.24124 17.4403 6.24929 17.5337 6.35284C17.6262 6.45539 17.6181 6.61423 17.5146 6.70773C15.9661 8.10116 14.7382 9.47347 13.9122 11.7204C13.2108 13.6286 12.7928 16.1722 12.7053 19.894C12.8681 15.9449 13.674 13.2456 15.0014 11.2127C16.57 8.81094 18.8501 7.3582 21.6506 5.88535C21.7732 5.82101 21.925 5.86826 21.9893 5.98991C22.0536 6.11256 22.0064 6.26437 21.8848 6.32871C19.1515 7.76738 16.9298 9.1789 15.4215 11.4872C14.4116 13.0334 13.7142 14.9919 13.3876 17.64C13.87 15.1125 14.8698 13.2245 16.3068 11.7174C18.4753 9.44431 21.6135 8.07502 25.4651 6.68662C25.6731 6.61222 25.9022 6.7208 25.9766 6.92891C26.0509 7.13702 25.9424 7.36624 25.7344 7.44064C21.9873 8.79083 18.9435 10.1139 16.8866 12.2704C15.1559 14.0847 14.1058 16.5162 13.8961 20.0974C13.951 20.0777 14.0127 20.0761 14.0718 20.0973C16.5791 21.0004 18.6219 21.8924 20.0335 23.3721C20.9696 24.3531 21.6198 25.5822 21.9338 27.2275C21.7212 25.5037 21.2672 24.2294 20.6098 23.2223C19.628 21.719 18.1817 20.8001 16.4025 19.8643C16.3227 19.8224 16.2919 19.7236 16.3345 19.6437C16.3763 19.5639 16.4751 19.5331 16.5549 19.5757C18.378 20.5351 19.8622 21.4801 20.8833 23.0436C21.6159 24.166 22.1045 25.5999 22.3007 27.5783C22.1987 25.7451 21.9514 24.4127 21.5747 23.3715C21.0455 21.9101 20.2553 21.0187 19.2473 20.111C19.1806 20.0508 19.1747 19.9474 19.2349 19.88C19.295 19.8132 19.3984 19.8073 19.4658 19.8676C20.5091 20.8067 21.3287 21.7327 21.8815 23.2596C22.2236 24.2046 22.461 25.378 22.5833 26.9271C22.5146 25.3675 22.3812 24.1902 22.1882 23.2465C21.8841 21.755 21.4314 20.8466 20.8564 19.9238C20.8087 19.8473 20.8322 19.7465 20.9088 19.6987C20.9853 19.6509 21.086 19.6745 21.1338 19.7511C21.7271 20.7026 22.1935 21.6391 22.5075 23.181C22.6206 23.7373 22.7142 24.3721 22.7861 25.1156C22.7495 24.1987 22.6998 23.433 22.6383 22.7733C22.4898 21.1725 22.2713 20.1974 22.0038 19.2059C21.9802 19.1189 22.0326 19.0292 22.1196 19.0056C22.2066 18.9821 22.2962 19.0344 22.3197 19.1215C22.5912 20.1261 22.8123 21.1149 22.9634 22.7439C23.0615 23.7975 23.1295 25.1188 23.1629 26.8878C23.1962 25.1195 23.2649 23.7975 23.3624 22.7439C23.5135 21.1143 23.7346 20.1261 24.0061 19.1215C24.0296 19.0344 24.1186 18.9827 24.2062 19.0056C24.2932 19.0292 24.3449 19.1182 24.322 19.2059C24.0538 20.1981 23.836 21.1732 23.6868 22.7733C23.6411 23.2674 23.6018 23.8211 23.5691 24.4533C23.6312 23.984 23.7045 23.5626 23.7863 23.1784C24.1159 21.6378 24.5987 20.7026 25.1913 19.7517C25.2391 19.6751 25.3398 19.6516 25.4164 19.6994C25.4929 19.7471 25.5164 19.8479 25.4687 19.9245C24.8931 20.8473 24.4254 21.755 24.1055 23.2465C23.8628 24.3793 23.7045 25.8472 23.6489 27.9094C23.7431 25.861 24.0093 24.3963 24.4267 23.2615C24.9879 21.734 25.816 20.8073 26.8594 19.8682C26.9261 19.808 27.0294 19.8132 27.0903 19.8806C27.1504 19.9474 27.1452 20.0508 27.0778 20.1117C26.0698 21.0187 25.2705 21.9121 24.7328 23.3747C24.2762 24.6169 24.0041 26.2726 23.9472 28.6954C24.0532 26.1247 24.5778 24.3675 25.4419 23.0442C26.463 21.4808 27.9472 20.5351 29.7702 19.5763C29.85 19.5344 29.9488 19.5652 29.9907 19.6444C30.0325 19.7242 30.0018 19.8231 29.9226 19.8649C28.1434 20.8015 26.6971 21.7203 25.7153 23.2229C25.0579 24.2294 24.6039 25.5043 24.3913 27.2281C24.7053 25.5828 25.3562 24.3538 26.2916 23.3728C27.7032 21.8931 29.746 21.0017 32.2533 20.0979C32.3887 20.0495 32.5378 20.1202 32.5862 20.2556C32.6346 20.3911 32.564 20.5403 32.4286 20.5888C29.9894 21.4677 28.008 22.3289 26.669 23.7327C25.3418 25.1241 24.6294 27.073 24.702 30.1463L24.7031 30.1772H21.6225L21.623 30.1558L21.6231 30.1457C21.6963 27.073 20.984 25.1241 19.6561 23.7321C18.3171 22.3283 16.3358 21.467 13.8965 20.5881C13.893 20.5868 13.8895 20.5855 13.886 20.5841C13.8817 20.5823 13.8774 20.5805 13.8733 20.5785C13.8552 21.0718 13.8523 21.5862 13.8649 22.1229C13.8649 22.1229 13.8697 22.708 13.8763 23.7064H9.12081C9.13505 22.6987 9.13505 22.1219 9.13505 22.1219C9.2476 17.4017 8.1533 14.4078 6.11343 12.2694C4.58298 10.6649 2.50626 9.52174 0 8.48553V36C0 38.2091 1.79086 40 4 40H29C31.2091 40 33 38.2091 33 36V4C33 1.79086 31.2091 0 29 0H4ZM9.02852 27.649C9.0681 26.4152 9.09298 25.3353 9.10861 24.4652H13.881C13.8864 25.3434 13.8923 26.4283 13.8975 27.649H9.02852ZM9.00294 28.4078H13.9006C13.9045 29.4303 13.9078 30.5313 13.9099 31.6739H8.86427C8.92188 30.516 8.96724 29.4183 9.00294 28.4078ZM8.82518 32.4328H13.9111C13.9117 32.9496 13.9121 33.4731 13.9122 34H21.4166C21.433 33.7274 21.4482 33.4737 21.4621 33.2378H24.7306C24.7313 33.4741 24.7318 33.7278 24.7322 34H29V35H4V34H8.73574C8.7681 33.4688 8.79785 32.9456 8.82518 32.4328ZM21.491 32.7438C21.5524 31.6843 21.5852 31.0484 21.6028 30.6712H24.7129C24.7185 31.057 24.725 31.7009 24.729 32.7438H21.491Z" fill="#B91313"/>
</g>
<defs>
<clipPath id="clip0_339_743">
<rect width="150" height="40" fill="white"/>
</clipPath>
</defs>
</svg>
