<svg width="28" height="28" viewBox="0 0 28 28" fill="none" xmlns="http://www.w3.org/2000/svg">
<g clip-path="url(#clip0_655_194)">
<path fill-rule="evenodd" clip-rule="evenodd" d="M25.4928 5L2.50755 5C2.4118 5 2.31589 5 2.22031 5.00051C2.13962 5.00118 2.0591 5.00203 1.9784 5.00423C1.80264 5.00896 1.62536 5.01928 1.4518 5.05057C1.27553 5.0822 1.11144 5.13395 0.951408 5.21547C0.793916 5.29547 0.649957 5.40017 0.524944 5.52499C0.400101 5.64998 0.295388 5.79374 0.215373 5.95137C0.133836 6.11137 0.0820718 6.27543 0.0506072 6.45183C0.0191426 6.62553 0.00882361 6.80261 0.00408701 6.97817C0.00188787 7.05885 0.000872888 7.13936 0.000365395 7.21986C-0.000142098 7.31559 2.70663e-05 7.41132 2.70663e-05 7.50722L2.70663e-05 20.4151C2.70663e-05 20.511 -0.000142098 20.6065 0.000365395 20.7024C0.000872888 20.7829 0.00188787 20.8636 0.00408701 20.9441C0.00882361 21.1195 0.0191426 21.2968 0.0506072 21.4703C0.0820718 21.6467 0.133836 21.8107 0.215373 21.9709C0.295388 22.1284 0.400101 22.2723 0.524944 22.3971C0.649957 22.5221 0.793916 22.6268 0.951408 22.7066C1.11144 22.7883 1.27553 22.8401 1.4518 22.8719C1.62536 22.9028 1.80264 22.9133 1.9784 22.9181C2.0591 22.9199 2.13962 22.9211 2.22031 22.9214C2.31589 22.9221 2.4118 22.9221 2.50755 22.9221L25.4928 22.9221C25.5883 22.9221 25.6843 22.9221 25.7798 22.9214C25.8604 22.9211 25.9409 22.9199 26.0219 22.9181C26.1973 22.9133 26.3746 22.9028 26.5485 22.8719C26.7246 22.8401 26.8887 22.7883 27.0489 22.7066C27.2064 22.6268 27.35 22.5221 27.4752 22.3971C27.5999 22.2723 27.7046 22.1284 27.7848 21.9709C27.8665 21.8107 27.9182 21.6467 27.9495 21.4703C27.981 21.2968 27.9912 21.1195 27.9959 20.9441C27.9981 20.8636 27.9991 20.7829 27.9996 20.7024C28.0003 20.6065 28.0003 20.511 28.0003 20.4151L28.0003 7.50722C28.0003 7.41132 28.0003 7.31559 27.9996 7.21986C27.9991 7.13936 27.9981 7.05885 27.9959 6.97817C27.9912 6.80261 27.981 6.62553 27.9495 6.45183C27.9182 6.27543 27.8665 6.11137 27.7848 5.95137C27.7046 5.79374 27.5999 5.64998 27.4752 5.52499C27.35 5.40017 27.2064 5.29547 27.0489 5.21547C26.8887 5.13395 26.7246 5.0822 26.5485 5.05057C26.3746 5.01928 26.1973 5.00896 26.0219 5.00423C25.9409 5.00203 25.8604 5.00118 25.7798 5.00051C25.6843 5 25.5883 5 25.4928 5Z" fill="#3C4043"/>
<path fill-rule="evenodd" clip-rule="evenodd" d="M25.4939 5.59717L25.7767 5.59768C25.8532 5.59818 25.9298 5.59903 26.0068 5.60123C26.1408 5.60478 26.2976 5.61205 26.4437 5.63827C26.5706 5.6611 26.6772 5.69594 26.7794 5.74786C26.8803 5.79911 26.9727 5.86643 27.0534 5.94693C27.1344 6.02812 27.2018 6.12063 27.2537 6.22262C27.3055 6.3241 27.34 6.42998 27.3628 6.55784C27.3889 6.70245 27.3961 6.85957 27.3997 6.99437C27.4019 7.07031 27.4029 7.14642 27.4032 7.22439C27.4039 7.3186 27.4039 7.41264 27.4039 7.50701L27.4039 20.4149C27.4039 20.5092 27.4039 20.6033 27.4032 20.6993C27.4029 20.7754 27.4019 20.8516 27.3997 20.9278C27.3961 21.0623 27.3889 21.2194 27.3625 21.3656C27.34 21.4917 27.3055 21.5976 27.2534 21.6996C27.2016 21.8014 27.1344 21.8938 27.0537 21.9744C26.9725 22.0556 26.8805 22.1226 26.7783 22.1743C26.6768 22.2261 26.5706 22.2609 26.4449 22.2834C26.2957 22.31 26.1325 22.3174 26.0095 22.3206C25.9322 22.3225 25.8552 22.3235 25.7762 22.3239C25.6823 22.3245 25.5879 22.3245 25.4939 22.3245L2.50867 22.3245C2.50748 22.3245 2.5063 22.3245 2.50495 22.3245C2.41207 22.3245 2.31887 22.3245 2.2243 22.3239C2.14716 22.3235 2.07019 22.3225 1.99576 22.3208C1.8699 22.3174 1.70649 22.31 1.55864 22.2836C1.43177 22.2609 1.32553 22.2261 1.22268 22.1737C1.12152 22.1224 1.02949 22.0554 0.948296 21.9741C0.867773 21.8938 0.800784 21.8016 0.74902 21.6996C0.697087 21.5978 0.662408 21.4916 0.639571 21.3639C0.61335 21.2179 0.606076 21.0616 0.602354 20.9278C0.600324 20.8514 0.599479 20.7748 0.598971 20.6988L0.598633 20.4742L0.598633 7.44781L0.598971 7.22371C0.599479 7.1471 0.600324 7.07065 0.602354 6.9942C0.606076 6.86025 0.61335 6.7038 0.639909 6.55666C0.662408 6.43031 0.697087 6.32393 0.749189 6.2216C0.800615 6.12046 0.867773 6.02812 0.948634 5.94727C1.02933 5.86643 1.12186 5.79945 1.22353 5.7477C1.32519 5.69577 1.43177 5.6611 1.55864 5.63827C1.7048 5.61205 1.86161 5.60478 1.99593 5.60123C2.07239 5.59903 2.14902 5.59818 2.22498 5.59768L2.50867 5.59717L25.4939 5.59717Z" fill="#FFFFFE"/>
<path d="M6.80226 11.1081C6.52769 10.9194 6.1694 10.8248 5.72739 10.8248H4.01617C3.88067 10.8248 3.80581 10.8925 3.79159 11.0279L3.09642 15.3914C3.0892 15.4343 3.09992 15.4735 3.12849 15.5091C3.1569 15.5449 3.19263 15.5626 3.23542 15.5626H4.04824C4.1908 15.5626 4.26916 15.495 4.28355 15.3594L4.47603 14.183C4.48306 14.126 4.50813 14.0797 4.55092 14.044C4.59368 14.0083 4.64716 13.985 4.71134 13.9743C4.77551 13.9638 4.83602 13.9584 4.89316 13.9584C4.95014 13.9584 5.01784 13.962 5.0964 13.9691C5.17476 13.9762 5.22471 13.9797 5.24612 13.9797C5.85927 13.9797 6.34054 13.8069 6.68997 13.461C7.03924 13.1153 7.21406 12.6358 7.21406 12.0225C7.21406 11.6019 7.0767 11.297 6.80226 11.108V11.1081ZM5.91994 12.4184C5.88418 12.668 5.7916 12.8319 5.64187 12.9103C5.49212 12.9889 5.27822 13.0279 5.00019 13.0279L4.64723 13.0386L4.82909 11.8942C4.84328 11.8159 4.8896 11.7767 4.96809 11.7767H5.17136C5.45642 11.7767 5.66332 11.8177 5.79166 11.8996C5.91994 11.9817 5.96273 12.1547 5.91994 12.4184Z" fill="#003087"/>
<path d="M24.8608 10.8246H24.0695C23.9909 10.8246 23.9446 10.8638 23.9304 10.9423L23.2352 15.3914L23.2245 15.4128C23.2245 15.4487 23.2388 15.4824 23.2673 15.5145C23.2957 15.5465 23.3315 15.5625 23.3743 15.5625H24.0802C24.2155 15.5625 24.2904 15.4949 24.3048 15.3594L25 10.985V10.9744C24.9999 10.8746 24.9535 10.8247 24.8608 10.8247V10.8246Z" fill="#009CDE"/>
<path d="M15.2995 12.5467C15.2995 12.5112 15.2852 12.4772 15.2568 12.4452C15.2282 12.4131 15.1961 12.397 15.1606 12.397H14.337C14.2585 12.397 14.1943 12.4328 14.1445 12.5039L13.0108 14.1725L12.5403 12.5682C12.5044 12.4541 12.4261 12.397 12.305 12.397H11.5027C11.467 12.397 11.4349 12.4131 11.4066 12.4452C11.378 12.4772 11.3638 12.5112 11.3638 12.5467C11.3638 12.5611 11.4333 12.7713 11.5723 13.1778C11.7113 13.5842 11.8611 14.0227 12.0215 14.4934C12.182 14.9639 12.2656 15.2136 12.2728 15.2419C11.6881 16.0405 11.3959 16.4684 11.3959 16.5253C11.3959 16.6181 11.4422 16.6644 11.5349 16.6644H12.3584C12.4368 16.6644 12.501 16.6288 12.551 16.5575L15.2782 12.6215C15.2924 12.6074 15.2995 12.5825 15.2995 12.5467V12.5467Z" fill="#003087"/>
<path d="M22.9681 12.397H22.1553C22.0553 12.397 21.9949 12.5147 21.9735 12.75C21.7879 12.4649 21.4495 12.3221 20.9574 12.3221C20.444 12.3221 20.0073 12.5147 19.6473 12.8997C19.2871 13.2848 19.1072 13.7376 19.1072 14.258C19.1072 14.6788 19.2301 15.0139 19.4761 15.2633C19.7221 15.513 20.0518 15.6377 20.4655 15.6377C20.6722 15.6377 20.8825 15.5948 21.0964 15.5093C21.3104 15.4238 21.4778 15.3097 21.5992 15.1671C21.5992 15.1742 21.5919 15.2062 21.5778 15.2633C21.5634 15.3204 21.5564 15.3633 21.5564 15.3916C21.5564 15.5058 21.6026 15.5627 21.6955 15.5627H22.4335C22.5688 15.5627 22.6473 15.4951 22.6686 15.3595L23.1072 12.5681C23.1142 12.5253 23.1035 12.4861 23.0751 12.4504C23.0465 12.4149 23.0109 12.397 22.9681 12.397ZM21.5724 14.504C21.3906 14.6822 21.1713 14.7714 20.9147 14.7714C20.7078 14.7714 20.5404 14.7144 20.412 14.6003C20.2836 14.4864 20.2194 14.3295 20.2194 14.1296C20.2194 13.866 20.3086 13.6431 20.4869 13.4613C20.6649 13.2794 20.8861 13.1885 21.1499 13.1885C21.3494 13.1885 21.5152 13.2474 21.6472 13.3649C21.779 13.4826 21.8452 13.6449 21.8452 13.8516C21.8451 14.1083 21.7542 14.3258 21.5724 14.504Z" fill="#009CDE"/>
<path d="M10.8183 12.397H10.0054C9.90548 12.397 9.845 12.5147 9.82359 12.75C9.63107 12.4649 9.29237 12.3221 8.80753 12.3221C8.29416 12.3221 7.85738 12.5147 7.49736 12.8997C7.13724 13.2848 6.95728 13.7376 6.95728 14.258C6.95728 14.6788 7.08029 15.0139 7.32629 15.2633C7.57228 15.513 7.90197 15.6377 8.31557 15.6377C8.51511 15.6377 8.72201 15.5948 8.93587 15.5093C9.14977 15.4238 9.3209 15.3097 9.44925 15.1671C9.42064 15.2526 9.40646 15.3275 9.40646 15.3916C9.40646 15.5058 9.45278 15.5627 9.54549 15.5627H10.2834C10.4188 15.5627 10.4973 15.4951 10.5188 15.3595L10.9572 12.5681C10.9643 12.5253 10.9536 12.4861 10.9252 12.4504C10.8966 12.4149 10.861 12.397 10.8183 12.397ZM9.42254 14.5093C9.24068 14.6842 9.01776 14.7714 8.75411 14.7714C8.54722 14.7714 8.38144 14.7144 8.25676 14.6003C8.13191 14.4864 8.06957 14.3295 8.06957 14.1296C8.06957 13.866 8.15866 13.6431 8.33698 13.4613C8.51511 13.2794 8.73617 13.1885 9.00008 13.1885C9.19962 13.1885 9.3654 13.2474 9.49743 13.365C9.62924 13.4826 9.69528 13.6449 9.69528 13.8517C9.69528 14.1155 9.60436 14.3348 9.42254 14.5093Z" fill="#003087"/>
<path d="M18.952 11.108C18.6774 10.9193 18.3192 10.8247 17.8771 10.8247H16.1766C16.0339 10.8247 15.9554 10.8924 15.9413 11.0278L15.2461 15.3913C15.2389 15.4342 15.2495 15.4734 15.2782 15.5091C15.3064 15.5448 15.3423 15.5625 15.3851 15.5625H16.262C16.3476 15.5625 16.4046 15.5162 16.4332 15.4235L16.6257 14.1829C16.6328 14.1259 16.6578 14.0796 16.7006 14.0439C16.7434 14.0082 16.7968 13.9849 16.861 13.9742C16.9252 13.9636 16.9856 13.9583 17.0429 13.9583C17.0998 13.9583 17.1675 13.9619 17.246 13.969C17.3244 13.9761 17.3745 13.9796 17.3957 13.9796C18.009 13.9796 18.4902 13.8068 18.8396 13.4609C19.189 13.1152 19.3637 12.6357 19.3637 12.0224C19.3637 11.6018 19.2264 11.297 18.952 11.1079V11.108ZM17.8557 12.8674C17.6988 12.9744 17.4635 13.0278 17.1499 13.0278L16.8076 13.0385L16.9894 11.8941C17.0035 11.8158 17.0499 11.7765 17.1284 11.7765H17.3209C17.4777 11.7765 17.6025 11.7837 17.6953 11.7979C17.7878 11.8123 17.8771 11.8567 17.9627 11.9316C18.0483 12.0065 18.091 12.1152 18.091 12.2578C18.091 12.5573 18.0125 12.7604 17.8557 12.8674Z" fill="#009CDE"/>
</g>
<defs>
<clipPath id="clip0_655_194">
<rect width="28.0003" height="28.0003" fill="white" transform="translate(0.000854492)"/>
</clipPath>
</defs>
</svg>
